mtllib red_cable.mtl
o posY
v 0.656250 0.000000 0.406250
v 0.656250 0.000000 0.593750
v 0.343750 0.000000 0.593750
v 0.343750 0.000000 0.406250
v 0.593750 0.000000 0.656250
v 0.406250 0.000000 0.656250
v 0.406250 0.000000 0.343750
v 0.593750 0.000000 0.343750
v 0.343750 0.343750 0.593750
v 0.343750 0.343750 0.406250
v 0.656250 0.343750 0.593750
v 0.656250 0.343750 0.406250
v 0.406250 0.343750 0.343750
v 0.593750 0.343750 0.343750
v 0.593750 0.343750 0.656250
v 0.406250 0.343750 0.656250
vt 0.250000 0.062500
vt 0.500000 0.000000
vt 0.562500 0.250000
vt 0.250000 -0.000000
vt 0.062500 0.343750
vt 0.062500 -0.000000
vt 0.000000 0.343750
vt -0.000000 -0.000000
vt 0.250000 0.000000
vt 0.062500 0.343750
vt 0.062500 0.000000
vt -0.000000 0.000000
vt 0.250000 0.343750
vt 0.062500 0.000000
vt 0.250000 0.000000
vt 0.062500 0.343750
vt -0.000000 0.000000
vt 0.250000 0.000000
vt 0.062500 0.343750
vt 0.062500 0.000000
vt 0.000000 0.343750
vt -0.000000 0.000000
vt 0.312500 0.000000
vt 0.562500 0.062500
vt 0.500000 0.312500
vt 0.312500 0.312500
vt 0.250000 0.250000
vt 0.250000 0.343750
vt 0.250000 0.343750
vt 0.000000 0.343750
vt 0.000000 0.343750
vt 0.250000 0.343750
vn 0.0000 -1.0000 0.0000
vn -1.0000 0.0000 0.0000
vn -0.7071 0.0000 -0.7071
vn 0.0000 0.0000 -1.0000
vn 0.7071 -0.0000 -0.7071
vn 1.0000 0.0000 0.0000
vn 0.7071 0.0000 0.7071
vn 0.0000 0.0000 1.0000
vn -0.7071 0.0000 0.7071
v 0.000000 0.343750 0.406250
v 0.000000 0.343750 0.593750
v 0.000000 0.656250 0.593750
v 0.000000 0.656250 0.406250
v 0.000000 0.406250 0.656250
v 0.000000 0.593750 0.656250
v 0.000000 0.593750 0.343750
v 0.000000 0.406250 0.343750
v 0.343750 0.656250 0.593750
v 0.343750 0.656250 0.406250
v 0.343750 0.343750 0.593750
v 0.343750 0.343750 0.406250
v 0.343750 0.593750 0.343750
v 0.343750 0.406250 0.343750
v 0.343750 0.406250 0.656250
v 0.343750 0.593750 0.656250
vt 0.250000 0.250000
vt 0.250000 0.062500
vt 0.562500 0.250000
vt 0.250000 -0.000000
vt 0.062500 0.343750
vt 0.062500 -0.000000
vt 0.000000 0.343750
vt -0.000000 -0.000000
vt 0.250000 0.000000
vt 0.062500 0.343750
vt 0.062500 0.000000
vt 0.000000 0.343750
vt -0.000000 0.000000
vt 0.250000 0.343750
vt 0.062500 0.000000
vt 0.250000 0.000000
vt 0.062500 0.343750
vt -0.000000 0.000000
vt 0.250000 0.000000
vt 0.062500 0.343750
vt 0.062500 0.000000
vt 0.000000 0.343750
vt -0.000000 0.000000
vt 0.312500 0.000000
vt 0.500000 0.000000
vt 0.562500 0.062500
vt 0.500000 0.312500
vt 0.312500 0.312500
vt 0.250000 0.343750
vt 0.250000 0.343750
vt 0.000000 0.343750
vt 0.250000 0.343750
vn -1.0000 0.0000 0.0000
vn 0.0000 1.0000 0.0000
vn 0.0000 0.7071 -0.7071
vn 0.0000 0.0000 -1.0000
vn 0.0000 -0.7071 -0.7071
vn 0.0000 -1.0000 0.0000
vn 0.0000 -0.7071 0.7071
vn 0.0000 0.0000 1.0000
vn 0.0000 0.7071 0.7071
v 0.593750 0.656250 1.000000
v 0.406250 0.656250 1.000000
v 0.406250 0.343750 1.000000
v 0.593750 0.343750 1.000000
v 0.343750 0.593750 1.000000
v 0.343750 0.406250 1.000000
v 0.656250 0.406250 1.000000
v 0.656250 0.593750 1.000000
v 0.343750 0.593750 0.656250
v 0.343750 0.406250 0.656250
v 0.656250 0.593750 0.656250
v 0.656250 0.406250 0.656250
v 0.406250 0.343750 0.656250
v 0.593750 0.343750 0.656250
v 0.593750 0.656250 0.656250
v 0.406250 0.656250 0.656250
vt 0.312500 0.000000
vt 0.562500 0.062500
vt 0.500000 0.312500
vt 0.062500 1.000000
vt 0.250000 0.656250
vt 0.250000 1.000000
vt 0.000000 0.656250
vt 0.000000 1.000000
vt 0.062500 1.000000
vt 0.250000 0.656250
vt 0.250000 1.000000
vt -0.000000 1.000000
vt 0.062500 0.656250
vt 0.062500 0.656250
vt 0.250000 1.000000
vt 0.062500 1.000000
vt 0.000000 0.656250
vt -0.000000 1.000000
vt 0.062500 1.000000
vt 0.250000 0.656250
vt 0.250000 1.000000
vt 0.000000 1.000000
vt 0.062500 0.656250
vt 0.500000 0.000000
vt 0.562500 0.250000
vt 0.312500 0.312500
vt 0.250000 0.250000
vt 0.250000 0.062500
vt 0.062500 0.656250
vt 0.000000 0.656250
vt 0.250000 0.656250
vt 0.000000 0.656250
vn 0.0000 0.0000 1.0000
vn -1.0000 0.0000 0.0000
vn -0.7071 0.7071 0.0000
vn 0.0000 1.0000 -0.0000
vn 0.7071 0.7071 0.0000
vn 1.0000 0.0000 0.0000
vn 0.7071 -0.7071 0.0000
vn 0.0000 -1.0000 0.0000
vn -0.7071 -0.7071 0.0000
v 1.000000 0.406250 0.343750
v 1.000000 0.593750 0.343750
v 1.000000 0.593750 0.656250
v 1.000000 0.406250 0.656250
v 1.000000 0.656250 0.406250
v 1.000000 0.656250 0.593750
v 1.000000 0.343750 0.593750
v 1.000000 0.343750 0.406250
v 0.656250 0.656250 0.406250
v 0.656250 0.656250 0.593750
v 0.656250 0.343750 0.406250
v 0.656250 0.343750 0.593750
v 0.656250 0.593750 0.656250
v 0.656250 0.406250 0.656250
v 0.656250 0.406250 0.343750
v 0.656250 0.593750 0.343750
vt 0.250000 0.062500
vt 0.312500 0.000000
vt 0.500000 0.312500
vt 0.062500 1.000000
vt 0.250000 0.656250
vt 0.250000 1.000000
vt 0.000000 1.000000
vt 0.062500 0.656250
vt 0.062500 1.000000
vt 0.250000 0.656250
vt 0.250000 1.000000
vt -0.000000 1.000000
vt 0.062500 0.656250
vt 0.062500 0.656250
vt 0.250000 1.000000
vt 0.062500 1.000000
vt 0.000000 0.656250
vt -0.000000 1.000000
vt 0.062500 1.000000
vt 0.250000 0.656250
vt 0.250000 1.000000
vt 0.000000 0.656250
vt 0.062500 0.656250
vt 0.500000 0.000000
vt 0.562500 0.062500
vt 0.562500 0.250000
vt 0.312500 0.312500
vt 0.250000 0.250000
vt 0.000000 0.656250
vt 0.000000 0.656250
vt 0.250000 0.656250
vt 0.000000 1.000000
vn 1.0000 0.0000 0.0000
vn 0.0000 1.0000 0.0000
vn 0.0000 0.7071 -0.7071
vn -0.0000 0.0000 -1.0000
vn 0.0000 -0.7071 -0.7071
vn 0.0000 -1.0000 0.0000
vn 0.0000 -0.7071 0.7071
vn 0.0000 0.0000 1.0000
vn 0.0000 0.7071 0.7071
v 0.593750 1.000000 0.343750
v 0.406250 1.000000 0.343750
v 0.406250 1.000000 0.656250
v 0.593750 1.000000 0.656250
v 0.343750 1.000000 0.406250
v 0.343750 1.000000 0.593750
v 0.656250 1.000000 0.593750
v 0.656250 1.000000 0.406250
v 0.343750 0.656250 0.406250
v 0.343750 0.656250 0.593750
v 0.656250 0.656250 0.406250
v 0.656250 0.656250 0.593750
v 0.406250 0.656250 0.656250
v 0.593750 0.656250 0.656250
v 0.593750 0.656250 0.343750
v 0.406250 0.656250 0.343750
vt 0.500000 0.312500
vt 0.250000 0.250000
vt 0.312500 0.000000
vt 0.062500 1.000000
vt 0.250000 0.656250
vt 0.250000 1.000000
vt 0.000000 0.656250
vt 0.000000 1.000000
vt 0.062500 1.000000
vt 0.250000 0.656250
vt 0.250000 1.000000
vt -0.000000 1.000000
vt 0.062500 0.656250
vt 0.062500 0.656250
vt 0.250000 1.000000
vt 0.062500 1.000000
vt 0.000000 0.656250
vt -0.000000 1.000000
vt 0.062500 1.000000
vt 0.250000 0.656250
vt 0.250000 1.000000
vt 0.000000 1.000000
vt 0.062500 0.656250
vt 0.500000 0.000000
vt 0.562500 0.062500
vt 0.562500 0.250000
vt 0.312500 0.312500
vt 0.250000 0.062500
vt 0.062500 0.656250
vt 0.000000 0.656250
vt 0.250000 0.656250
vt 0.000000 0.656250
vn 0.0000 1.0000 0.0000
vn -1.0000 0.0000 0.0000
vn -0.7071 0.0000 -0.7071
vn 0.0000 0.0000 -1.0000
vn 0.7071 0.0000 -0.7071
vn 1.0000 0.0000 0.0000
vn 0.7071 0.0000 0.7071
vn 0.0000 0.0000 1.0000
vn -0.7071 0.0000 0.7071
v 0.343750 0.343750 0.406250
v 0.343750 0.343750 0.593750
v 0.406250 0.343750 0.656250
v 0.593750 0.343750 0.656250
v 0.656250 0.343750 0.593750
v 0.656250 0.343750 0.406250
v 0.593750 0.343750 0.343750
v 0.406250 0.343750 0.343750
v 0.343750 0.656250 0.406250
v 0.343750 0.656250 0.593750
v 0.406250 0.656250 0.656250
v 0.593750 0.656250 0.656250
v 0.656250 0.656250 0.593750
v 0.656250 0.656250 0.406250
v 0.593750 0.656250 0.343750
v 0.406250 0.656250 0.343750
v 0.656250 0.406250 0.343750
v 0.656250 0.593750 0.343750
v 0.656250 0.593750 0.656250
v 0.656250 0.406250 0.656250
v 0.343750 0.406250 0.656250
v 0.343750 0.593750 0.656250
v 0.343750 0.593750 0.343750
v 0.343750 0.406250 0.343750
vt 0.250000 0.062500
vt 0.250000 -0.000000
vt 0.312500 0.000000
vt 0.312500 0.312500
vt 0.250000 0.312500
vt 0.250000 0.250000
vt 0.312500 0.000000
vt 0.250000 0.062500
vt 0.250000 -0.000000
vt 0.562500 0.062500
vt 0.500000 0.000000
vt 0.562500 -0.000000
vt 0.562500 0.062500
vt 0.500000 0.000000
vt 0.562500 -0.000000
vt 0.562500 0.250000
vt 0.562500 0.312500
vt 0.500000 0.312500
vt 0.500000 0.312500
vt 0.562500 0.250000
vt 0.562500 0.312500
vt 0.312500 0.312500
vt 0.250000 0.312500
vt 0.250000 0.250000
vt 0.562500 0.250000
vt 0.312500 0.312500
vt 0.250000 0.062500
vt 0.312500 0.312500
vt 0.250000 0.062500
vt 0.500000 0.000000
vt 0.250000 0.250000
vt 0.312500 0.000000
vt 0.562500 0.062500
vt 0.250000 0.250000
vt 0.312500 0.000000
vt 0.562500 0.062500
vt 0.312500 0.000000
vt 0.500000 0.000000
vt 0.562500 0.062500
vt 0.500000 0.312500
vt 0.250000 0.250000
vt 0.562500 0.062500
vt 0.562500 0.250000
vt 0.500000 0.312500
vt 0.250000 0.250000
vt 0.312500 0.000000
vt 0.562500 0.250000
vt 0.500000 0.312500
vt 0.312500 0.312500
vt 0.250000 0.062500
vt 0.500000 0.000000
vt 0.562500 0.250000
vt 0.500000 0.312500
vt 0.312500 0.312500
vt 0.250000 0.062500
vt 0.500000 0.000000
vn -0.5774 -0.5774 0.5774
vn 0.5774 -0.5774 0.5774
vn -0.5774 0.5774 0.5774
vn 0.5774 0.5774 0.5774
vn -0.5774 -0.5774 -0.5774
vn 0.5774 -0.5774 -0.5774
vn 0.5774 0.5774 -0.5774
vn -0.5774 0.5774 -0.5774
vn 0.0000 -1.0000 0.0000
vn 0.0000 0.0000 -1.0000
vn -1.0000 0.0000 0.0000
vn 1.0000 0.0000 0.0000
vn 0.0000 1.0000 0.0000
vn 0.0000 0.0000 1.0000
v 0.656250 0.593750 0.000000
v 0.656250 0.406250 0.000000
v 0.343750 0.406250 0.000000
v 0.343750 0.593750 0.000000
v 0.593750 0.343750 0.000000
v 0.406250 0.343750 0.000000
v 0.406250 0.656250 0.000000
v 0.593750 0.656250 0.000000
v 0.343750 0.406250 0.343750
v 0.343750 0.593750 0.343750
v 0.656250 0.406250 0.343750
v 0.656250 0.593750 0.343750
v 0.406250 0.656250 0.343750
v 0.593750 0.656250 0.343750
v 0.593750 0.343750 0.343750
v 0.406250 0.343750 0.343750
vt 0.562500 0.250000
vt 0.312500 0.312500
vt 0.250000 0.062500
vt 0.250000 -0.000000
vt 0.062500 0.343750
vt 0.062500 -0.000000
vt 0.000000 0.343750
vt -0.000000 -0.000000
vt 0.250000 0.000000
vt 0.062500 0.343750
vt 0.062500 0.000000
vt -0.000000 0.000000
vt 0.250000 0.343750
vt 0.062500 0.000000
vt 0.250000 0.000000
vt 0.062500 0.343750
vt -0.000000 0.000000
vt 0.250000 0.000000
vt 0.062500 0.343750
vt 0.062500 0.000000
vt 0.000000 0.343750
vt -0.000000 0.000000
vt 0.312500 0.000000
vt 0.500000 0.000000
vt 0.562500 0.062500
vt 0.500000 0.312500
vt 0.250000 0.250000
vt 0.250000 0.343750
vt 0.250000 0.343750
vt 0.000000 0.343750
vt 0.000000 0.343750
vt 0.250000 0.343750
vn 0.0000 0.0000 -1.0000
vn -1.0000 0.0000 0.0000
vn -0.7071 0.7071 0.0000
vn 0.0000 1.0000 0.0000
vn 0.7071 0.7071 -0.0000
vn 1.0000 0.0000 0.0000
vn 0.7071 -0.7071 -0.0000
vn 0.0000 -1.0000 0.0000
vn -0.7071 -0.7071 -0.0000
v 0.343750 0.593750 1.000000
v 0.406250 0.656250 0.000000
v 0.593750 0.656250 0.000000
v 0.343750 0.406250 1.000000
v 0.656250 0.406250 1.000000
v 0.593750 0.343750 0.000000
v 0.406250 0.343750 0.000000
v 0.656250 0.593750 1.000000
v 0.406250 0.343750 1.000000
v 0.656250 0.593750 0.000000
v 0.656250 0.406250 0.000000
v 0.593750 0.343750 1.000000
v 0.593750 0.656250 1.000000
v 0.343750 0.406250 0.000000
v 0.343750 0.593750 0.000000
v 0.406250 0.656250 1.000000
vt 0.250000 1.000000
vt 0.062500 0.000000
vt 0.250000 0.000000
vt -0.000000 1.000000
vt 0.062500 1.000000
vt 0.062500 1.000000
vt 0.250000 0.000000
vt 0.250000 1.000000
vt -0.000000 0.000000
vt -0.000000 1.000000
vt 0.250000 1.000000
vt 0.062500 0.000000
vt 0.250000 0.000000
vt 0.062500 1.000000
vt -0.000000 0.000000
vt 0.062500 1.000000
vt 0.250000 0.000000
vt 0.250000 1.000000
vt 0.062500 0.000000
vt -0.000000 1.000000
vt -0.000000 0.000000
vt 0.562500 0.250000
vt 0.312500 0.312500
vt 0.250000 0.062500
vt 0.562500 0.062500
vt 0.500000 0.312500
vt 0.250000 0.250000
vt -0.000000 0.000000
vt 0.062500 0.000000
vt -0.000000 1.000000
vt 0.312500 0.000000
vt 0.500000 0.000000
vt 0.562500 0.062500
vt 0.500000 0.312500
vt 0.250000 0.250000
vt 0.250000 0.062500
vt 0.312500 0.000000
vt 0.500000 0.000000
vt 0.562500 0.250000
vt 0.312500 0.312500
vn 0.0000 1.0000 0.0000
vn 0.7071 0.7071 0.0000
vn 1.0000 0.0000 0.0000
vn 0.7071 -0.7071 -0.0000
vn 0.0000 -1.0000 -0.0000
vn -0.7071 -0.7071 -0.0000
vn -1.0000 0.0000 0.0000
vn -0.7071 0.7071 0.0000
vn -0.0000 0.0000 1.0000
vn 0.0000 0.0000 -1.0000
v 1.000000 0.656250 0.406250
v 0.000000 0.593750 0.343750
v 0.000000 0.406250 0.343750
v 1.000000 0.656250 0.593750
v 1.000000 0.343750 0.593750
v 0.000000 0.406250 0.656250
v 0.000000 0.593750 0.656250
v 1.000000 0.343750 0.406250
v 1.000000 0.593750 0.656250
v 0.000000 0.343750 0.406250
v 0.000000 0.343750 0.593750
v 1.000000 0.406250 0.656250
v 1.000000 0.406250 0.343750
v 0.000000 0.656250 0.593750
v 0.000000 0.656250 0.406250
v 1.000000 0.593750 0.343750
vt 0.250000 1.000000
vt 0.062500 0.000000
vt 0.250000 0.000000
vt -0.000000 1.000000
vt 0.062500 1.000000
vt 0.062500 1.000000
vt 0.250000 0.000000
vt 0.250000 1.000000
vt -0.000000 0.000000
vt -0.000000 1.000000
vt 0.250000 1.000000
vt 0.062500 0.000000
vt 0.250000 0.000000
vt 0.062500 1.000000
vt -0.000000 0.000000
vt 0.062500 1.000000
vt 0.250000 0.000000
vt 0.250000 1.000000
vt 0.062500 0.000000
vt -0.000000 1.000000
vt -0.000000 0.000000
vt 0.562500 0.250000
vt 0.312500 0.312500
vt 0.250000 0.062500
vt 0.562500 0.062500
vt 0.500000 0.312500
vt 0.250000 0.250000
vt -0.000000 0.000000
vt 0.062500 0.000000
vt -0.000000 1.000000
vt 0.312500 0.000000
vt 0.500000 0.000000
vt 0.562500 0.062500
vt 0.500000 0.312500
vt 0.250000 0.250000
vt 0.250000 0.062500
vt 0.312500 0.000000
vt 0.500000 0.000000
vt 0.562500 0.250000
vt 0.312500 0.312500
vn 0.0000 0.0000 -1.0000
vn 0.0000 -0.7071 -0.7071
vn 0.0000 -1.0000 0.0000
vn 0.0000 -0.7071 0.7071
vn 0.0000 0.0000 1.0000
vn -0.0000 0.7071 0.7071
vn -0.0000 1.0000 0.0000
vn -0.0000 0.7071 -0.7071
vn 1.0000 0.0000 0.0000
vn -1.0000 0.0000 0.0000
v 0.343750 1.000000 0.406250
v 0.406250 0.000000 0.343750
v 0.593750 0.000000 0.343750
v 0.343750 1.000000 0.593750
v 0.656250 1.000000 0.593750
v 0.593750 0.000000 0.656250
v 0.406250 0.000000 0.656250
v 0.656250 1.000000 0.406250
v 0.406250 1.000000 0.656250
v 0.656250 0.000000 0.406250
v 0.656250 0.000000 0.593750
v 0.593750 1.000000 0.656250
v 0.593750 1.000000 0.343750
v 0.343750 0.000000 0.593750
v 0.343750 0.000000 0.406250
v 0.406250 1.000000 0.343750
vt 0.250000 1.000000
vt 0.062500 0.000000
vt 0.250000 0.000000
vt -0.000000 1.000000
vt 0.062500 1.000000
vt 0.062500 1.000000
vt 0.250000 0.000000
vt 0.250000 1.000000
vt -0.000000 0.000000
vt -0.000000 1.000000
vt 0.250000 1.000000
vt 0.062500 0.000000
vt 0.250000 0.000000
vt 0.062500 1.000000
vt -0.000000 0.000000
vt 0.062500 1.000000
vt 0.250000 0.000000
vt 0.250000 1.000000
vt 0.062500 0.000000
vt -0.000000 1.000000
vt -0.000000 0.000000
vt 0.562500 0.250000
vt 0.312500 0.312500
vt 0.250000 0.062500
vt 0.562500 0.062500
vt 0.500000 0.312500
vt 0.250000 0.250000
vt -0.000000 0.000000
vt 0.062500 0.000000
vt -0.000000 1.000000
vt 0.312500 0.000000
vt 0.500000 0.000000
vt 0.562500 0.062500
vt 0.500000 0.312500
vt 0.250000 0.250000
vt 0.250000 0.062500
vt 0.312500 0.000000
vt 0.500000 0.000000
vt 0.562500 0.250000
vt 0.312500 0.312500
vn 0.0000 0.0000 -1.0000
vn 0.7071 0.0000 -0.7071
vn 1.0000 0.0000 0.0000
vn 0.7071 0.0000 0.7071
vn 0.0000 0.0000 1.0000
vn -0.7071 0.0000 0.7071
vn -1.0000 0.0000 0.0000
vn -0.7071 0.0000 -0.7071
vn 0.0000 1.0000 0.0000
vn 0.0000 -1.0000 0.0000
usemtl Texture
s off
f 67/129/37 71/130/37 65/131/37
f 69/132/38 74/133/38 70/134/38
f 80/135/39 69/132/39 66/136/39
f 65/137/40 80/138/40 66/139/40
f 72/140/41 79/141/41 65/137/41
f 76/142/42 72/143/42 71/144/42
f 78/145/43 71/144/43 68/146/43
f 67/147/44 78/148/44 68/149/44
f 70/150/45 77/151/45 67/147/45
f 65/131/37 66/152/37 67/129/37
f 66/152/37 69/153/37 67/129/37
f 69/153/37 70/154/37 67/129/37
f 67/129/37 68/155/37 71/130/37
f 71/130/37 72/156/37 65/131/37
f 69/132/38 73/157/38 74/133/38
f 80/135/39 73/157/39 69/132/39
f 65/137/40 79/141/40 80/138/40
f 72/140/41 75/158/41 79/141/41
f 76/142/42 75/159/42 72/143/42
f 78/145/43 76/142/43 71/144/43
f 67/147/44 77/151/44 78/148/44
f 70/150/45 74/160/45 77/151/45
