# Exact HBM CE pipe_neo geometry for connection mask 55
mtllib pipe_neo_overlay.mtl
o pipe
v 0.687500 0.500000 0.000000
v 0.632582 0.367418 0.000000
v 0.500000 0.312500 0.000000
v 0.367417 0.367418 0.000000
v 0.312500 0.500000 0.000000
v 0.367417 0.632583 0.000000
v 0.500000 0.687500 0.000000
v 0.632582 0.632583 0.000000
v 0.367418 0.632583 0.500000
v 0.500000 0.687500 0.500000
v 0.367418 0.367417 0.500000
v 0.312500 0.500000 0.500000
v 0.632582 0.367417 0.500000
v 0.500000 0.312500 0.500000
v 0.632582 0.632583 0.500000
v 0.687500 0.500000 0.500000
v 1.000000 0.500000 0.687500
v 1.000000 0.367418 0.632582
v 1.000000 0.312500 0.500000
v 1.000000 0.367418 0.367418
v 1.000000 0.500000 0.312500
v 1.000000 0.632583 0.367418
v 1.000000 0.687500 0.500000
v 1.000000 0.632583 0.632582
v 0.500000 0.500000 0.687500
v 0.500000 0.632583 0.632582
v 0.500000 0.312500 0.500000
v 0.500000 0.367417 0.632582
v 0.500000 0.500000 0.312500
v 0.500000 0.367417 0.367418
v 0.500000 0.687500 0.500000
v 0.500000 0.632583 0.367418
v 0.687500 0.500000 1.000000
v 0.632583 0.367417 1.000000
v 0.500000 0.312500 1.000000
v 0.367418 0.367417 1.000000
v 0.312500 0.500000 1.000000
v 0.367418 0.632582 1.000000
v 0.500000 0.687500 1.000000
v 0.632583 0.632582 1.000000
v 0.367418 0.632583 0.500000
v 0.500000 0.687500 0.500000
v 0.367418 0.367417 0.500000
v 0.312500 0.500000 0.500000
v 0.632582 0.367417 0.500000
v 0.500000 0.312500 0.500000
v 0.632582 0.632583 0.500000
v 0.687500 0.500000 0.500000
v 0.000000 0.500000 0.687500
v 0.000000 0.367417 0.632583
v 0.000000 0.312500 0.500000
v 0.000000 0.367417 0.367418
v 0.000000 0.500000 0.312500
v 0.000000 0.632582 0.367418
v 0.000000 0.687500 0.500000
v 0.000000 0.632582 0.632583
v 0.500000 0.500000 0.687500
v 0.500000 0.632583 0.632582
v 0.500000 0.312500 0.500000
v 0.500000 0.367417 0.632582
v 0.500000 0.500000 0.312500
v 0.500000 0.367417 0.367418
v 0.500000 0.687500 0.500000
v 0.500000 0.632583 0.367418
v 0.500000 0.000000 0.312500
v 0.367417 0.000000 0.367418
v 0.312500 0.000000 0.500000
v 0.367417 0.000000 0.632582
v 0.500000 0.000000 0.687500
v 0.632583 0.000000 0.632582
v 0.687500 0.000000 0.500000
v 0.632583 0.000000 0.367418
v 0.500000 0.500000 0.312500
v 0.632583 0.500000 0.367418
v 0.312500 0.500000 0.500000
v 0.367417 0.500000 0.367418
v 0.500000 0.500000 0.687500
v 0.367417 0.500000 0.632582
v 0.687500 0.500000 0.500000
v 0.632583 0.500000 0.632582
vt 0.125000 1.000000
vt 0.000000 0.500000
vt 0.125000 0.500000
vt 0.125000 1.000000
vt 0.000000 0.500000
vt 0.125000 0.500000
vt 0.125000 1.000000
vt 0.000000 0.500000
vt 0.125000 0.500000
vt 0.250000 1.000000
vt 0.250000 0.500000
vt 0.250000 0.500000
vt 0.250000 0.500000
vt 0.250000 1.000000
vt 0.125000 0.500000
vt 0.250000 0.500000
vt 0.125000 1.000000
vt 0.000000 0.500000
vt 0.305394 0.319606
vt 0.250674 0.187500
vt 0.624326 0.187500
vt -0.000000 1.000000
vt -0.000000 1.000000
vt -0.000000 1.000000
vt 0.250000 1.000000
vt 0.250000 1.000000
vt -0.000000 1.000000
vt 0.305394 0.055394
vt 0.437500 0.000674
vt 0.569606 0.055394
vt 0.569606 0.319606
vt 0.437500 0.374326
vt 0.125000 1.000000
vt 0.000000 0.500000
vt 0.125000 0.500000
vt 0.125000 0.500000
vt -0.000000 1.000000
vt 0.000000 0.500000
vt 0.125000 1.000000
vt 0.000000 0.500000
vt 0.125000 0.500000
vt 0.250000 1.000000
vt 0.250000 0.500000
vt 0.250000 1.000000
vt 0.250000 0.500000
vt 0.250000 1.000000
vt 0.250000 0.500000
vt 0.250000 1.000000
vt 0.125000 0.500000
vt 0.250000 0.500000
vt 0.125000 1.000000
vt 0.000000 0.500000
vt 0.305394 0.319606
vt 0.250674 0.187500
vt 0.624326 0.187500
vt -0.000000 1.000000
vt 0.125000 1.000000
vt -0.000000 1.000000
vt -0.000000 1.000000
vt 0.305394 0.055394
vt 0.437500 0.000674
vt 0.569606 0.055394
vt 0.569606 0.319606
vt 0.437500 0.374326
vt 0.624326 0.187500
vt 0.437500 0.374326
vt 0.250674 0.187500
vt 0.125000 0.500000
vt -0.000000 -0.000000
vt 0.125000 -0.000000
vt 0.250000 0.500000
vt 0.250000 -0.000000
vt 0.250000 -0.000000
vt 0.125000 0.500000
vt 0.125000 -0.000000
vt 0.250000 0.500000
vt 0.125000 -0.000000
vt 0.250000 -0.000000
vt 0.250000 0.500000
vt 0.125000 0.000000
vt 0.250000 0.000000
vt -0.000000 -0.000000
vt 0.125000 0.500000
vt -0.000000 -0.000000
vt 0.125000 0.500000
vt -0.000000 0.000000
vt 0.437500 0.000674
vt 0.569606 0.055394
vt 0.569606 0.319606
vt 0.305394 0.319606
vt 0.305394 0.055394
vt 0.000000 0.500000
vt 0.250000 0.500000
vt 0.000000 0.500000
vt 0.000000 0.500000
vt 0.000000 0.500000
vt 0.437500 0.000674
vt 0.624326 0.187500
vt 0.437500 0.374326
vt 0.125000 0.000000
vt 0.000000 0.500000
vt -0.000000 0.000000
vt 0.125000 0.500000
vt -0.000000 -0.000000
vt 0.125000 -0.000000
vt 0.125000 0.500000
vt -0.000000 -0.000000
vt 0.125000 -0.000000
vt 0.250000 0.500000
vt 0.250000 0.000000
vt 0.250000 0.500000
vt 0.250000 -0.000000
vt 0.250000 0.500000
vt 0.250000 -0.000000
vt 0.250000 0.500000
vt 0.125000 -0.000000
vt 0.250000 -0.000000
vt 0.125000 0.500000
vt -0.000000 -0.000000
vt 0.569606 0.055394
vt 0.569606 0.319606
vt 0.305394 0.319606
vt 0.250674 0.187500
vt 0.305394 0.055394
vt 0.125000 0.500000
vt 0.000000 0.500000
vt 0.000000 0.500000
vt 0.000000 0.500000
vt 0.305394 0.055394
vt 0.437500 0.000674
vt 0.437500 0.374326
vt 0.125000 0.500000
vt -0.000000 0.000000
vt 0.125000 0.000000
vt 0.125000 0.500000
vt -0.000000 -0.000000
vt 0.125000 -0.000000
vt 0.125000 0.500000
vt -0.000000 -0.000000
vt 0.125000 -0.000000
vt 0.250000 0.500000
vt 0.250000 0.000000
vt 0.250000 0.500000
vt 0.250000 -0.000000
vt 0.250000 0.500000
vt 0.250000 -0.000000
vt 0.250000 0.500000
vt 0.125000 -0.000000
vt 0.250000 -0.000000
vt 0.125000 0.500000
vt -0.000000 -0.000000
vt 0.569606 0.055394
vt 0.624326 0.187500
vt 0.569606 0.319606
vt 0.305394 0.319606
vt 0.250674 0.187500
vt 0.000000 0.500000
vt 0.000000 0.500000
vt 0.000000 0.500000
vt 0.000000 0.500000
vn -0.3827 0.9239 0.0000
vn -0.9239 -0.3827 0.0000
vn 0.3827 -0.9239 -0.0000
vn 0.3827 0.9239 0.0000
vn -0.9239 0.3827 0.0000
vn -0.3827 -0.9239 -0.0000
vn 0.9239 -0.3827 -0.0000
vn 0.9239 0.3827 -0.0000
vn 0.0000 0.0000 -1.0000
vn -0.0000 0.9239 -0.3827
vn 0.0000 -0.3827 -0.9239
vn 0.0000 -0.9239 0.3827
vn -0.0000 0.9239 0.3827
vn -0.0000 0.3827 -0.9239
vn 0.0000 -0.9239 -0.3827
vn 0.0000 -0.3827 0.9239
vn -0.0000 0.3827 0.9239
vn 1.0000 0.0000 0.0000
vn 0.0000 0.0000 1.0000
vn 0.9239 0.3827 0.0000
vn 0.9239 -0.3827 -0.0000
vn -0.3827 -0.9239 -0.0000
vn -0.9239 0.3827 0.0000
vn 0.3827 0.9239 0.0000
vn 0.3827 -0.9239 -0.0000
vn -0.9239 -0.3827 0.0000
vn -0.3827 0.9239 0.0000
vn -1.0000 0.0000 0.0000
vn -0.0000 0.9239 -0.3827
vn 0.0000 -0.3827 -0.9239
vn 0.0000 -0.9239 0.3827
vn -0.0000 0.9239 0.3827
vn -0.0000 0.3827 -0.9239
vn 0.0000 -0.9239 -0.3827
vn 0.0000 -0.3827 0.9239
vn -0.0000 0.3827 0.9239
vn 0.0000 -1.0000 0.0000
vn 0.9239 0.0000 0.3827
vn -0.3827 0.0000 0.9239
vn -0.9239 0.0000 -0.3827
vn 0.9239 0.0000 -0.3827
vn 0.3827 0.0000 0.9239
vn -0.9239 0.0000 0.3827
vn -0.3827 0.0000 -0.9239
vn 0.3827 0.0000 -0.9239
usemtl pipe
s off
f 23/33/10 32/34/10 31/35/10
f 29/36/11 20/37/11 30/38/11
f 19/39/12 28/40/12 27/41/12
f 24/42/13 31/35/13 26/43/13
f 22/44/14 29/36/14 32/45/14
f 20/46/15 27/41/15 30/47/15
f 18/48/16 25/49/16 28/50/16
f 17/51/17 26/52/17 25/49/17
f 24/53/18 17/54/18 21/55/18
f 23/33/10 22/56/10 32/34/10
f 29/36/11 21/57/11 20/37/11
f 19/39/12 18/58/12 28/40/12
f 24/42/13 23/33/13 31/35/13
f 22/44/14 21/57/14 29/36/14
f 20/46/15 19/39/15 27/41/15
f 18/48/16 17/51/16 25/49/16
f 17/51/17 24/59/17 26/52/17
f 17/54/18 18/60/18 19/61/18
f 19/61/18 20/62/18 17/54/18
f 20/62/18 21/55/18 17/54/18
f 21/55/18 22/63/18 23/64/18
f 23/64/18 24/53/18 21/55/18
f 51/97/28 49/98/28 55/99/28
f 55/100/29 64/101/29 54/102/29
f 61/103/30 52/104/30 53/105/30
f 59/106/31 50/107/31 51/108/31
f 58/109/32 55/100/32 56/110/32
f 64/111/33 53/105/33 54/112/33
f 62/113/34 51/108/34 52/114/34
f 60/115/35 49/116/35 50/117/35
f 57/118/36 56/119/36 49/116/36
f 51/97/28 50/120/28 49/98/28
f 49/98/28 56/121/28 55/99/28
f 55/99/28 54/122/28 53/123/28
f 53/123/28 52/124/28 55/99/28
f 52/124/28 51/97/28 55/99/28
f 55/100/29 63/125/29 64/101/29
f 61/103/30 62/126/30 52/104/30
f 59/106/31 60/127/31 50/107/31
f 58/109/32 63/125/32 55/100/32
f 64/111/33 61/103/33 53/105/33
f 62/113/34 59/106/34 51/108/34
f 60/115/35 57/118/35 49/116/35
f 57/118/36 58/128/36 56/119/36
f 68/129/37 67/130/37 71/131/37
f 79/132/38 70/133/38 71/134/38
f 77/135/39 68/136/39 69/137/39
f 75/138/40 66/139/40 67/140/40
f 74/141/41 71/134/41 72/142/41
f 80/143/42 69/137/42 70/144/42
f 78/145/43 67/140/43 68/146/43
f 76/147/44 65/148/44 66/149/44
f 73/150/45 72/151/45 65/148/45
f 67/130/37 66/152/37 71/131/37
f 66/152/37 65/153/37 71/131/37
f 65/153/37 72/154/37 71/131/37
f 71/131/37 70/155/37 69/156/37
f 69/156/37 68/129/37 71/131/37
f 79/132/38 80/157/38 70/133/38
f 77/135/39 78/158/39 68/136/39
f 75/138/40 76/159/40 66/139/40
f 74/141/41 79/132/41 71/134/41
f 80/143/42 77/135/42 69/137/42
f 78/145/43 75/138/43 67/140/43
f 76/147/44 73/150/44 65/148/44
f 73/150/45 74/160/45 72/151/45
f 33/65/19 39/66/19 37/67/19
f 48/68/20 40/69/20 33/70/20
f 45/71/21 33/70/21 34/72/21
f 36/73/22 46/74/22 35/75/22
f 41/76/23 37/77/23 38/78/23
f 47/79/24 39/80/24 40/81/24
f 46/74/25 34/82/25 35/75/25
f 44/83/26 36/84/26 37/77/26
f 42/85/27 38/86/27 39/80/27
f 35/87/19 34/88/19 33/65/19
f 33/65/19 40/89/19 39/66/19
f 39/66/19 38/90/19 37/67/19
f 37/67/19 36/91/19 35/87/19
f 35/87/19 33/65/19 37/67/19
f 48/68/20 47/92/20 40/69/20
f 45/71/21 48/68/21 33/70/21
f 36/73/22 43/93/22 46/74/22
f 41/76/23 44/83/23 37/77/23
f 47/79/24 42/85/24 39/80/24
f 46/74/25 45/94/25 34/82/25
f 44/83/26 43/95/26 36/84/26
f 42/85/27 41/96/27 38/86/27
f 7/1/1 9/2/1 10/3/1
f 5/4/2 11/5/2 12/6/2
f 3/7/3 13/8/3 14/9/3
f 8/10/4 10/3/4 15/11/4
f 9/12/5 5/4/5 12/6/5
f 11/13/6 3/7/6 14/9/6
f 2/14/7 16/15/7 13/16/7
f 1/17/8 15/18/8 16/15/8
f 8/19/9 1/20/9 5/21/9
f 7/1/1 6/22/1 9/2/1
f 5/4/2 4/23/2 11/5/2
f 3/7/3 2/24/3 13/8/3
f 8/10/4 7/1/4 10/3/4
f 9/12/5 6/25/5 5/4/5
f 11/13/6 4/26/6 3/7/6
f 2/14/7 1/17/7 16/15/7
f 1/17/8 8/27/8 15/18/8
f 1/20/9 2/28/9 3/29/9
f 3/29/9 4/30/9 1/20/9
f 4/30/9 5/21/9 1/20/9
f 5/21/9 6/31/9 7/32/9
f 7/32/9 8/19/9 5/21/9
