# Exact HBM CE pipe_neo geometry for connection mask 25
mtllib pipe_neo_overlay.mtl
o pipe
v 0.687500 0.500000 0.000000
v 0.632582 0.367418 0.000000
v 0.500000 0.312500 0.000000
v 0.367417 0.367418 0.000000
v 0.312500 0.500000 0.000000
v 0.367417 0.632583 0.000000
v 0.500000 0.687500 0.000000
v 0.632582 0.632583 0.000000
v 0.367418 0.632583 0.500000
v 0.500000 0.687500 0.500000
v 0.367418 0.367417 0.500000
v 0.312500 0.500000 0.500000
v 0.632582 0.367417 0.500000
v 0.500000 0.312500 0.500000
v 0.632582 0.632583 0.500000
v 0.687500 0.500000 0.500000
v 0.000000 0.500000 0.687500
v 0.000000 0.367417 0.632583
v 0.000000 0.312500 0.500000
v 0.000000 0.367417 0.367418
v 0.000000 0.500000 0.312500
v 0.000000 0.632582 0.367418
v 0.000000 0.687500 0.500000
v 0.000000 0.632582 0.632583
v 0.500000 0.500000 0.687500
v 0.500000 0.632583 0.632582
v 0.500000 0.312500 0.500000
v 0.500000 0.367417 0.632582
v 0.500000 0.500000 0.312500
v 0.500000 0.367417 0.367418
v 0.500000 0.687500 0.500000
v 0.500000 0.632583 0.367418
v 0.500000 1.000000 0.312500
v 0.367417 1.000000 0.367418
v 0.312500 1.000000 0.500000
v 0.367417 1.000000 0.632582
v 0.500000 1.000000 0.687500
v 0.632583 1.000000 0.632582
v 0.687500 1.000000 0.500000
v 0.632583 1.000000 0.367418
v 0.500000 0.500000 0.312500
v 0.632583 0.500000 0.367418
v 0.312500 0.500000 0.500000
v 0.367417 0.500000 0.367418
v 0.500000 0.500000 0.687500
v 0.367417 0.500000 0.632582
v 0.687500 0.500000 0.500000
v 0.632583 0.500000 0.632582
v 0.687500 0.500000 0.500000
v 0.632583 0.367417 0.500000
v 0.500000 0.312500 0.500000
v 0.500000 0.500000 0.687500
v 0.632583 0.500000 0.632583
v 0.500000 0.367417 0.632583
vt 0.125000 1.000000
vt 0.000000 0.500000
vt 0.125000 0.500000
vt 0.125000 1.000000
vt 0.000000 0.500000
vt 0.125000 0.500000
vt 0.125000 1.000000
vt 0.000000 0.500000
vt 0.125000 0.500000
vt 0.250000 1.000000
vt 0.250000 0.500000
vt 0.250000 0.500000
vt 0.250000 0.500000
vt 0.250000 1.000000
vt 0.125000 0.500000
vt 0.250000 0.500000
vt 0.125000 1.000000
vt 0.000000 0.500000
vt 0.305394 0.319606
vt 0.250674 0.187500
vt 0.624326 0.187500
vt -0.000000 1.000000
vt -0.000000 1.000000
vt -0.000000 1.000000
vt 0.250000 1.000000
vt 0.250000 1.000000
vt -0.000000 1.000000
vt 0.305394 0.055394
vt 0.437500 0.000674
vt 0.569606 0.055394
vt 0.569606 0.319606
vt 0.437500 0.374326
vt 0.437500 0.000674
vt 0.624326 0.187500
vt 0.437500 0.374326
vt 0.125000 0.000000
vt 0.000000 0.500000
vt -0.000000 0.000000
vt 0.125000 0.500000
vt -0.000000 -0.000000
vt 0.125000 -0.000000
vt 0.125000 0.500000
vt -0.000000 -0.000000
vt 0.125000 -0.000000
vt 0.250000 0.500000
vt 0.250000 0.000000
vt 0.250000 0.500000
vt 0.250000 -0.000000
vt 0.250000 0.500000
vt 0.250000 -0.000000
vt 0.250000 0.500000
vt 0.125000 -0.000000
vt 0.250000 -0.000000
vt 0.125000 0.500000
vt -0.000000 -0.000000
vt 0.569606 0.055394
vt 0.569606 0.319606
vt 0.305394 0.319606
vt 0.250674 0.187500
vt 0.305394 0.055394
vt 0.125000 0.500000
vt 0.000000 0.500000
vt 0.000000 0.500000
vt 0.000000 0.500000
vt 0.125000 1.000000
vt 0.000000 0.500000
vt 0.125000 0.500000
vt 0.125000 1.000000
vt 0.000000 0.500000
vt 0.125000 0.500000
vt 0.125000 1.000000
vt 0.000000 0.500000
vt 0.125000 0.500000
vt 0.250000 1.000000
vt 0.250000 0.500000
vt 0.250000 1.000000
vt 0.250000 0.500000
vt 0.250000 1.000000
vt 0.250000 0.500000
vt 0.250000 1.000000
vt 0.125000 0.500000
vt 0.250000 0.500000
vt 0.125000 1.000000
vt 0.000000 0.500000
vt 0.624326 0.187500
vt 0.437500 0.374326
vt 0.250674 0.187500
vt -0.000000 1.000000
vt -0.000000 1.000000
vt -0.000000 1.000000
vt -0.000000 1.000000
vt 0.305394 0.055394
vt 0.437500 0.000674
vt 0.569606 0.055394
vt 0.569606 0.319606
vt 0.305394 0.319606
vt 0.375000 0.375000
vt 0.375000 0.625000
vt 0.250000 0.500000
vt 0.625000 0.375000
vt 0.500000 0.500000
vt 0.625000 0.625000
vn -0.3827 0.9239 0.0000
vn -0.9239 -0.3827 0.0000
vn 0.3827 -0.9239 -0.0000
vn 0.3827 0.9239 0.0000
vn -0.9239 0.3827 0.0000
vn -0.3827 -0.9239 -0.0000
vn 0.9239 -0.3827 -0.0000
vn 0.9239 0.3827 -0.0000
vn 0.0000 0.0000 -1.0000
vn -1.0000 0.0000 0.0000
vn -0.0000 0.9239 -0.3827
vn 0.0000 -0.3827 -0.9239
vn 0.0000 -0.9239 0.3827
vn -0.0000 0.9239 0.3827
vn -0.0000 0.3827 -0.9239
vn 0.0000 -0.9239 -0.3827
vn 0.0000 -0.3827 0.9239
vn -0.0000 0.3827 0.9239
vn 0.9239 0.0000 0.3827
vn -0.3827 0.0000 0.9239
vn -0.9239 0.0000 -0.3827
vn 0.9239 0.0000 -0.3827
vn 0.3827 0.0000 0.9239
vn -0.9239 0.0000 0.3827
vn -0.3827 0.0000 -0.9239
vn 0.3827 0.0000 -0.9239
vn 0.0000 1.0000 0.0000
vn 0.3574 -0.8629 0.3574
vn 0.8629 -0.3574 0.3574
vn 0.5774 -0.5774 0.5774
vn 0.3574 -0.3574 0.8629
usemtl pipe
s off
f 19/33/10 17/34/10 23/35/10
f 23/36/11 32/37/11 22/38/11
f 29/39/12 20/40/12 21/41/12
f 27/42/13 18/43/13 19/44/13
f 26/45/14 23/36/14 24/46/14
f 32/47/15 21/41/15 22/48/15
f 30/49/16 19/44/16 20/50/16
f 28/51/17 17/52/17 18/53/17
f 25/54/18 24/55/18 17/52/18
f 19/33/10 18/56/10 17/34/10
f 17/34/10 24/57/10 23/35/10
f 23/35/10 22/58/10 21/59/10
f 21/59/10 20/60/10 23/35/10
f 20/60/10 19/33/10 23/35/10
f 23/36/11 31/61/11 32/37/11
f 29/39/12 30/62/12 20/40/12
f 27/42/13 28/63/13 18/43/13
f 26/45/14 31/61/14 23/36/14
f 32/47/15 29/39/15 21/41/15
f 30/49/16 27/42/16 19/44/16
f 28/51/17 25/54/17 17/52/17
f 25/54/18 26/64/18 24/55/18
f 39/65/19 48/66/19 47/67/19
f 37/68/20 46/69/20 45/70/20
f 35/71/21 44/72/21 43/73/21
f 40/74/22 47/67/22 42/75/22
f 38/76/23 45/70/23 48/77/23
f 36/78/24 43/73/24 46/79/24
f 34/80/25 41/81/25 44/82/25
f 33/83/26 42/84/26 41/81/26
f 37/85/27 39/86/27 33/87/27
f 39/65/19 38/88/19 48/66/19
f 37/68/20 36/89/20 46/69/20
f 35/71/21 34/90/21 44/72/21
f 40/74/22 39/65/22 47/67/22
f 38/76/23 37/68/23 45/70/23
f 36/78/24 35/71/24 43/73/24
f 34/80/25 33/83/25 41/81/25
f 33/83/26 40/91/26 42/84/26
f 33/87/27 34/92/27 37/85/27
f 34/92/27 35/93/27 37/85/27
f 35/93/27 36/94/27 37/85/27
f 37/85/27 38/95/27 39/86/27
f 39/86/27 40/96/27 33/87/27
f 7/1/1 9/2/1 10/3/1
f 5/4/2 11/5/2 12/6/2
f 3/7/3 13/8/3 14/9/3
f 8/10/4 10/3/4 15/11/4
f 9/12/5 5/4/5 12/6/5
f 11/13/6 3/7/6 14/9/6
f 2/14/7 16/15/7 13/16/7
f 1/17/8 15/18/8 16/15/8
f 8/19/9 1/20/9 5/21/9
f 7/1/1 6/22/1 9/2/1
f 5/4/2 4/23/2 11/5/2
f 3/7/3 2/24/3 13/8/3
f 8/10/4 7/1/4 10/3/4
f 9/12/5 6/25/5 5/4/5
f 11/13/6 4/26/6 3/7/6
f 2/14/7 1/17/7 16/15/7
f 1/17/8 8/27/8 15/18/8
f 1/20/9 2/28/9 3/29/9
f 3/29/9 4/30/9 1/20/9
f 4/30/9 5/21/9 1/20/9
f 5/21/9 6/31/9 7/32/9
f 7/32/9 8/19/9 5/21/9
f 50/97/28 54/98/28 51/99/28
f 49/100/29 53/101/29 50/97/29
f 54/98/30 50/97/30 53/101/30
f 53/101/31 52/102/31 54/98/31
