# Exact HBM CE pipe_neo geometry for connection mask 10
mtllib pipe_neo_overlay.mtl
o pipe
v 0.687500 0.500000 1.000000
v 0.632583 0.367417 1.000000
v 0.500000 0.312500 1.000000
v 0.367418 0.367417 1.000000
v 0.312500 0.500000 1.000000
v 0.367418 0.632582 1.000000
v 0.500000 0.687500 1.000000
v 0.632583 0.632582 1.000000
v 0.367418 0.632583 0.500000
v 0.500000 0.687500 0.500000
v 0.367418 0.367417 0.500000
v 0.312500 0.500000 0.500000
v 0.632582 0.367417 0.500000
v 0.500000 0.312500 0.500000
v 0.632582 0.632583 0.500000
v 0.687500 0.500000 0.500000
v 0.500000 1.000000 0.312500
v 0.367417 1.000000 0.367418
v 0.312500 1.000000 0.500000
v 0.367417 1.000000 0.632582
v 0.500000 1.000000 0.687500
v 0.632583 1.000000 0.632582
v 0.687500 1.000000 0.500000
v 0.632583 1.000000 0.367418
v 0.500000 0.500000 0.312500
v 0.632583 0.500000 0.367418
v 0.312500 0.500000 0.500000
v 0.367417 0.500000 0.367418
v 0.500000 0.500000 0.687500
v 0.367417 0.500000 0.632582
v 0.687500 0.500000 0.500000
v 0.632583 0.500000 0.632582
v 0.500000 0.312500 0.500000
v 0.367418 0.367417 0.500000
v 0.312500 0.500000 0.500000
v 0.500000 0.500000 0.312500
v 0.367418 0.500000 0.367417
v 0.500000 0.367417 0.367417
v 0.687500 0.500000 0.500000
v 0.632583 0.367417 0.500000
v 0.500000 0.312500 0.500000
v 0.632583 0.500000 0.367417
v 0.500000 0.500000 0.312500
v 0.500000 0.367417 0.367417
vt 0.624326 0.187500
vt 0.437500 0.374326
vt 0.250674 0.187500
vt 0.125000 0.500000
vt -0.000000 -0.000000
vt 0.125000 -0.000000
vt 0.250000 0.500000
vt 0.250000 -0.000000
vt 0.250000 -0.000000
vt 0.125000 0.500000
vt 0.125000 -0.000000
vt 0.250000 0.500000
vt 0.125000 -0.000000
vt 0.250000 -0.000000
vt 0.250000 0.500000
vt 0.125000 0.000000
vt 0.250000 0.000000
vt -0.000000 -0.000000
vt 0.125000 0.500000
vt -0.000000 -0.000000
vt 0.125000 0.500000
vt -0.000000 0.000000
vt 0.437500 0.000674
vt 0.569606 0.055394
vt 0.569606 0.319606
vt 0.305394 0.319606
vt 0.305394 0.055394
vt 0.000000 0.500000
vt 0.250000 0.500000
vt 0.000000 0.500000
vt 0.000000 0.500000
vt 0.000000 0.500000
vt 0.125000 1.000000
vt 0.000000 0.500000
vt 0.125000 0.500000
vt 0.125000 1.000000
vt 0.000000 0.500000
vt 0.125000 0.500000
vt 0.125000 1.000000
vt 0.000000 0.500000
vt 0.125000 0.500000
vt 0.250000 1.000000
vt 0.250000 0.500000
vt 0.250000 1.000000
vt 0.250000 0.500000
vt 0.250000 1.000000
vt 0.250000 0.500000
vt 0.250000 1.000000
vt 0.125000 0.500000
vt 0.250000 0.500000
vt 0.125000 1.000000
vt 0.000000 0.500000
vt 0.624326 0.187500
vt 0.437500 0.374326
vt 0.250674 0.187500
vt -0.000000 1.000000
vt -0.000000 1.000000
vt -0.000000 1.000000
vt -0.000000 1.000000
vt 0.305394 0.055394
vt 0.437500 0.000674
vt 0.569606 0.055394
vt 0.569606 0.319606
vt 0.305394 0.319606
vt 0.250000 0.500000
vt 0.375000 0.375000
vt 0.375000 0.625000
vt 0.625000 0.625000
vt 0.500000 0.500000
vt 0.625000 0.375000
vt 0.375000 0.625000
vt 0.250000 0.500000
vt 0.375000 0.375000
vt 0.500000 0.500000
vt 0.625000 0.375000
vt 0.625000 0.625000
vn 0.0000 0.0000 1.0000
vn 0.9239 0.3827 0.0000
vn 0.9239 -0.3827 -0.0000
vn -0.3827 -0.9239 -0.0000
vn -0.9239 0.3827 0.0000
vn 0.3827 0.9239 0.0000
vn 0.3827 -0.9239 -0.0000
vn -0.9239 -0.3827 0.0000
vn -0.3827 0.9239 0.0000
vn 0.9239 0.0000 0.3827
vn -0.3827 0.0000 0.9239
vn -0.9239 0.0000 -0.3827
vn 0.9239 0.0000 -0.3827
vn 0.3827 0.0000 0.9239
vn -0.9239 0.0000 0.3827
vn -0.3827 0.0000 -0.9239
vn 0.3827 0.0000 -0.9239
vn 0.0000 1.0000 0.0000
vn -0.3574 -0.8629 -0.3574
vn -0.3574 -0.3574 -0.8629
vn -0.5774 -0.5774 -0.5774
vn -0.8629 -0.3574 -0.3574
vn 0.3574 -0.8629 -0.3574
vn 0.3574 -0.3574 -0.8629
vn 0.5774 -0.5774 -0.5774
vn 0.8629 -0.3574 -0.3574
usemtl pipe
s off
f 23/33/10 32/34/10 31/35/10
f 21/36/11 30/37/11 29/38/11
f 19/39/12 28/40/12 27/41/12
f 24/42/13 31/35/13 26/43/13
f 22/44/14 29/38/14 32/45/14
f 20/46/15 27/41/15 30/47/15
f 18/48/16 25/49/16 28/50/16
f 17/51/17 26/52/17 25/49/17
f 21/53/18 23/54/18 17/55/18
f 23/33/10 22/56/10 32/34/10
f 21/36/11 20/57/11 30/37/11
f 19/39/12 18/58/12 28/40/12
f 24/42/13 23/33/13 31/35/13
f 22/44/14 21/36/14 29/38/14
f 20/46/15 19/39/15 27/41/15
f 18/48/16 17/51/16 25/49/16
f 17/51/17 24/59/17 26/52/17
f 17/55/18 18/60/18 21/53/18
f 18/60/18 19/61/18 21/53/18
f 19/61/18 20/62/18 21/53/18
f 21/53/18 22/63/18 23/54/18
f 23/54/18 24/64/18 17/55/18
f 1/1/1 7/2/1 5/3/1
f 16/4/2 8/5/2 1/6/2
f 13/7/3 1/6/3 2/8/3
f 4/9/4 14/10/4 3/11/4
f 9/12/5 5/13/5 6/14/5
f 15/15/6 7/16/6 8/17/6
f 14/10/7 2/18/7 3/11/7
f 12/19/8 4/20/8 5/13/8
f 10/21/9 6/22/9 7/16/9
f 3/23/1 2/24/1 1/1/1
f 1/1/1 8/25/1 7/2/1
f 7/2/1 6/26/1 5/3/1
f 5/3/1 4/27/1 3/23/1
f 3/23/1 1/1/1 5/3/1
f 16/4/2 15/28/2 8/5/2
f 13/7/3 16/4/3 1/6/3
f 4/9/4 11/29/4 14/10/4
f 9/12/5 12/19/5 5/13/5
f 15/15/6 10/21/6 7/16/6
f 14/10/7 13/30/7 2/18/7
f 12/19/8 11/31/8 4/20/8
f 10/21/9 9/32/9 6/22/9
f 40/71/23 41/72/23 44/73/23
f 42/74/24 44/73/24 43/75/24
f 44/73/25 42/74/25 40/71/25
f 39/76/26 40/71/26 42/74/26
f 33/65/19 34/66/19 38/67/19
f 36/68/20 38/67/20 37/69/20
f 38/67/21 34/66/21 37/69/21
f 34/66/22 35/70/22 37/69/22
