# Exact HBM CE pipe_neo geometry for connection mask 36
mtllib pipe_neo_overlay.mtl
o pipe
v 1.000000 0.500000 0.687500
v 1.000000 0.367418 0.632582
v 1.000000 0.312500 0.500000
v 1.000000 0.367418 0.367418
v 1.000000 0.500000 0.312500
v 1.000000 0.632583 0.367418
v 1.000000 0.687500 0.500000
v 1.000000 0.632583 0.632582
v 0.500000 0.500000 0.687500
v 0.500000 0.632583 0.632582
v 0.500000 0.312500 0.500000
v 0.500000 0.367417 0.632582
v 0.500000 0.500000 0.312500
v 0.500000 0.367417 0.367418
v 0.500000 0.687500 0.500000
v 0.500000 0.632583 0.367418
v 0.312500 0.500000 0.500000
v 0.367418 0.632582 0.500000
v 0.500000 0.687500 0.500000
v 0.367418 0.500000 0.632583
v 0.500000 0.500000 0.687500
v 0.500000 0.632582 0.632583
v 0.312500 0.500000 0.500000
v 0.367418 0.632582 0.500000
v 0.500000 0.687500 0.500000
v 0.500000 0.500000 0.312500
v 0.367418 0.500000 0.367417
v 0.500000 0.632582 0.367417
v 0.500000 0.000000 0.312500
v 0.367417 0.000000 0.367418
v 0.312500 0.000000 0.500000
v 0.367417 0.000000 0.632582
v 0.500000 0.000000 0.687500
v 0.632583 0.000000 0.632582
v 0.687500 0.000000 0.500000
v 0.632583 0.000000 0.367418
v 0.500000 0.500000 0.312500
v 0.632583 0.500000 0.367418
v 0.312500 0.500000 0.500000
v 0.367417 0.500000 0.367418
v 0.500000 0.500000 0.687500
v 0.367417 0.500000 0.632582
v 0.687500 0.500000 0.500000
v 0.632583 0.500000 0.632582
vt 0.125000 1.000000
vt 0.000000 0.500000
vt 0.125000 0.500000
vt 0.125000 0.500000
vt -0.000000 1.000000
vt 0.000000 0.500000
vt 0.125000 1.000000
vt 0.000000 0.500000
vt 0.125000 0.500000
vt 0.250000 1.000000
vt 0.250000 0.500000
vt 0.250000 1.000000
vt 0.250000 0.500000
vt 0.250000 1.000000
vt 0.250000 0.500000
vt 0.250000 1.000000
vt 0.125000 0.500000
vt 0.250000 0.500000
vt 0.125000 1.000000
vt 0.000000 0.500000
vt 0.305394 0.319606
vt 0.250674 0.187500
vt 0.624326 0.187500
vt -0.000000 1.000000
vt 0.125000 1.000000
vt -0.000000 1.000000
vt -0.000000 1.000000
vt 0.305394 0.055394
vt 0.437500 0.000674
vt 0.569606 0.055394
vt 0.569606 0.319606
vt 0.437500 0.374326
vt 0.625000 0.375000
vt 0.500000 0.500000
vt 0.375000 0.375000
vt 0.375000 0.625000
vt 0.625000 0.625000
vt 0.250000 0.500000
vt 0.625000 0.375000
vt 0.500000 0.500000
vt 0.375000 0.375000
vt 0.625000 0.625000
vt 0.375000 0.625000
vt 0.250000 0.500000
vt 0.305394 0.055394
vt 0.437500 0.000674
vt 0.437500 0.374326
vt 0.125000 0.500000
vt -0.000000 0.000000
vt 0.125000 0.000000
vt 0.125000 0.500000
vt -0.000000 -0.000000
vt 0.125000 -0.000000
vt 0.125000 0.500000
vt -0.000000 -0.000000
vt 0.125000 -0.000000
vt 0.250000 0.500000
vt 0.250000 0.000000
vt 0.250000 0.500000
vt 0.250000 -0.000000
vt 0.250000 0.500000
vt 0.250000 -0.000000
vt 0.250000 0.500000
vt 0.125000 -0.000000
vt 0.250000 -0.000000
vt 0.125000 0.500000
vt -0.000000 -0.000000
vt 0.569606 0.055394
vt 0.624326 0.187500
vt 0.569606 0.319606
vt 0.305394 0.319606
vt 0.250674 0.187500
vt 0.000000 0.500000
vt 0.000000 0.500000
vt 0.000000 0.500000
vt 0.000000 0.500000
vn -0.0000 0.9239 -0.3827
vn 0.0000 -0.3827 -0.9239
vn 0.0000 -0.9239 0.3827
vn -0.0000 0.9239 0.3827
vn -0.0000 0.3827 -0.9239
vn 0.0000 -0.9239 -0.3827
vn 0.0000 -0.3827 0.9239
vn -0.0000 0.3827 0.9239
vn 1.0000 0.0000 0.0000
vn -0.8629 0.3574 0.3574
vn -0.5774 0.5774 0.5774
vn -0.3574 0.3574 0.8629
vn -0.3574 0.8629 0.3574
vn -0.3574 0.3574 -0.8629
vn -0.8629 0.3574 -0.3574
vn -0.5774 0.5774 -0.5774
vn -0.3574 0.8629 -0.3574
vn 0.0000 -1.0000 0.0000
vn 0.9239 0.0000 0.3827
vn -0.3827 0.0000 0.9239
vn -0.9239 0.0000 -0.3827
vn 0.9239 0.0000 -0.3827
vn 0.3827 0.0000 0.9239
vn -0.9239 0.0000 0.3827
vn -0.3827 0.0000 -0.9239
vn 0.3827 0.0000 -0.9239
usemtl pipe
s off
f 7/1/1 16/2/1 15/3/1
f 13/4/2 4/5/2 14/6/2
f 3/7/3 12/8/3 11/9/3
f 8/10/4 15/3/4 10/11/4
f 6/12/5 13/4/5 16/13/5
f 4/14/6 11/9/6 14/15/6
f 2/16/7 9/17/7 12/18/7
f 1/19/8 10/20/8 9/17/8
f 8/21/9 1/22/9 5/23/9
f 7/1/1 6/24/1 16/2/1
f 13/4/2 5/25/2 4/5/2
f 3/7/3 2/26/3 12/8/3
f 8/10/4 7/1/4 15/3/4
f 6/12/5 5/25/5 13/4/5
f 4/14/6 3/7/6 11/9/6
f 2/16/7 1/19/7 9/17/7
f 1/19/8 8/27/8 10/20/8
f 1/22/9 2/28/9 3/29/9
f 3/29/9 4/30/9 1/22/9
f 4/30/9 5/23/9 1/22/9
f 5/23/9 6/31/9 7/32/9
f 7/32/9 8/21/9 5/23/9
f 32/45/18 31/46/18 35/47/18
f 43/48/19 34/49/19 35/50/19
f 41/51/20 32/52/20 33/53/20
f 39/54/21 30/55/21 31/56/21
f 38/57/22 35/50/22 36/58/22
f 44/59/23 33/53/23 34/60/23
f 42/61/24 31/56/24 32/62/24
f 40/63/25 29/64/25 30/65/25
f 37/66/26 36/67/26 29/64/26
f 31/46/18 30/68/18 35/47/18
f 30/68/18 29/69/18 35/47/18
f 29/69/18 36/70/18 35/47/18
f 35/47/18 34/71/18 33/72/18
f 33/72/18 32/45/18 35/47/18
f 43/48/19 44/73/19 34/49/19
f 41/51/20 42/74/20 32/52/20
f 39/54/21 40/75/21 30/55/21
f 38/57/22 43/48/22 35/50/22
f 44/59/23 41/51/23 33/53/23
f 42/61/24 39/54/24 31/56/24
f 40/63/25 37/66/25 29/64/25
f 37/66/26 38/76/26 36/67/26
f 17/33/10 20/34/10 18/35/10
f 20/34/11 22/36/11 18/35/11
f 20/34/12 21/37/12 22/36/12
f 18/35/13 22/36/13 19/38/13
f 26/39/14 27/40/14 28/41/14
f 23/42/15 24/43/15 27/40/15
f 27/40/16 24/43/16 28/41/16
f 24/43/17 25/44/17 28/41/17
