# Exact HBM CE pipe_neo geometry for connection mask 02
mtllib pipe_neo.mtl
o pipe
v 0.687500 0.500000 0.000000
v 0.632582 0.367418 0.000000
v 0.500000 0.312500 0.000000
v 0.367417 0.367418 0.000000
v 0.312500 0.500000 0.000000
v 0.367417 0.632583 0.000000
v 0.500000 0.687500 0.000000
v 0.632582 0.632583 0.000000
v 0.367418 0.632583 0.500000
v 0.500000 0.687500 0.500000
v 0.367418 0.367417 0.500000
v 0.312500 0.500000 0.500000
v 0.632582 0.367417 0.500000
v 0.500000 0.312500 0.500000
v 0.632582 0.632583 0.500000
v 0.687500 0.500000 0.500000
v 0.687500 0.500000 1.000000
v 0.632583 0.367417 1.000000
v 0.500000 0.312500 1.000000
v 0.367418 0.367417 1.000000
v 0.312500 0.500000 1.000000
v 0.367418 0.632582 1.000000
v 0.500000 0.687500 1.000000
v 0.632583 0.632582 1.000000
v 0.367418 0.632583 0.500000
v 0.500000 0.687500 0.500000
v 0.367418 0.367417 0.500000
v 0.312500 0.500000 0.500000
v 0.632582 0.367417 0.500000
v 0.500000 0.312500 0.500000
v 0.632582 0.632583 0.500000
v 0.687500 0.500000 0.500000
vt 0.125000 1.000000
vt 0.000000 0.500000
vt 0.125000 0.500000
vt 0.125000 1.000000
vt 0.000000 0.500000
vt 0.125000 0.500000
vt 0.125000 1.000000
vt 0.000000 0.500000
vt 0.125000 0.500000
vt 0.250000 1.000000
vt 0.250000 0.500000
vt 0.250000 0.500000
vt 0.250000 0.500000
vt 0.250000 1.000000
vt 0.125000 0.500000
vt 0.250000 0.500000
vt 0.125000 1.000000
vt 0.000000 0.500000
vt 0.305394 0.319606
vt 0.250674 0.187500
vt 0.624326 0.187500
vt -0.000000 1.000000
vt -0.000000 1.000000
vt -0.000000 1.000000
vt 0.250000 1.000000
vt 0.250000 1.000000
vt -0.000000 1.000000
vt 0.305394 0.055394
vt 0.437500 0.000674
vt 0.569606 0.055394
vt 0.569606 0.319606
vt 0.437500 0.374326
vt 0.624326 0.187500
vt 0.437500 0.374326
vt 0.250674 0.187500
vt 0.125000 0.500000
vt -0.000000 -0.000000
vt 0.125000 -0.000000
vt 0.250000 0.500000
vt 0.250000 -0.000000
vt 0.250000 -0.000000
vt 0.125000 0.500000
vt 0.125000 -0.000000
vt 0.250000 0.500000
vt 0.125000 -0.000000
vt 0.250000 -0.000000
vt 0.250000 0.500000
vt 0.125000 0.000000
vt 0.250000 0.000000
vt -0.000000 -0.000000
vt 0.125000 0.500000
vt -0.000000 -0.000000
vt 0.125000 0.500000
vt -0.000000 0.000000
vt 0.437500 0.000674
vt 0.569606 0.055394
vt 0.569606 0.319606
vt 0.305394 0.319606
vt 0.305394 0.055394
vt 0.000000 0.500000
vt 0.250000 0.500000
vt 0.000000 0.500000
vt 0.000000 0.500000
vt 0.000000 0.500000
vn -0.3827 0.9239 0.0000
vn -0.9239 -0.3827 0.0000
vn 0.3827 -0.9239 -0.0000
vn 0.3827 0.9239 0.0000
vn -0.9239 0.3827 0.0000
vn -0.3827 -0.9239 -0.0000
vn 0.9239 -0.3827 -0.0000
vn 0.9239 0.3827 -0.0000
vn 0.0000 0.0000 -1.0000
vn 0.0000 0.0000 1.0000
vn 0.9239 0.3827 0.0000
vn 0.9239 -0.3827 -0.0000
vn -0.3827 -0.9239 -0.0000
vn -0.9239 0.3827 0.0000
vn 0.3827 0.9239 0.0000
vn 0.3827 -0.9239 -0.0000
vn -0.9239 -0.3827 0.0000
vn -0.3827 0.9239 0.0000
usemtl pipe
s off
f 7/1/1 9/2/1 10/3/1
f 5/4/2 11/5/2 12/6/2
f 3/7/3 13/8/3 14/9/3
f 8/10/4 10/3/4 15/11/4
f 9/12/5 5/4/5 12/6/5
f 11/13/6 3/7/6 14/9/6
f 2/14/7 16/15/7 13/16/7
f 1/17/8 15/18/8 16/15/8
f 8/19/9 1/20/9 5/21/9
f 7/1/1 6/22/1 9/2/1
f 5/4/2 4/23/2 11/5/2
f 3/7/3 2/24/3 13/8/3
f 8/10/4 7/1/4 10/3/4
f 9/12/5 6/25/5 5/4/5
f 11/13/6 4/26/6 3/7/6
f 2/14/7 1/17/7 16/15/7
f 1/17/8 8/27/8 15/18/8
f 1/20/9 2/28/9 3/29/9
f 3/29/9 4/30/9 1/20/9
f 4/30/9 5/21/9 1/20/9
f 5/21/9 6/31/9 7/32/9
f 7/32/9 8/19/9 5/21/9
f 17/33/10 23/34/10 21/35/10
f 32/36/11 24/37/11 17/38/11
f 29/39/12 17/38/12 18/40/12
f 20/41/13 30/42/13 19/43/13
f 25/44/14 21/45/14 22/46/14
f 31/47/15 23/48/15 24/49/15
f 30/42/16 18/50/16 19/43/16
f 28/51/17 20/52/17 21/45/17
f 26/53/18 22/54/18 23/48/18
f 19/55/10 18/56/10 17/33/10
f 17/33/10 24/57/10 23/34/10
f 23/34/10 22/58/10 21/35/10
f 21/35/10 20/59/10 19/55/10
f 19/55/10 17/33/10 21/35/10
f 32/36/11 31/60/11 24/37/11
f 29/39/12 32/36/12 17/38/12
f 20/41/13 27/61/13 30/42/13
f 25/44/14 28/51/14 21/45/14
f 31/47/15 26/53/15 23/48/15
f 30/42/16 29/62/16 18/50/16
f 28/51/17 27/63/17 20/52/17
f 26/53/18 25/64/18 22/54/18
