mtllib machine_intake.mtl
# Blender v2.79 (sub 0) OBJ File: 'intake.blend'
# www.blender.org
o Fan
usemtl intake
v 0.000000 0.750000 -0.125000
v -0.108253 0.750000 -0.062500
v -0.108253 0.750000 0.062500
v 0.000000 0.750000 0.125000
v 0.108253 0.750000 0.062500
v 0.108253 0.750000 -0.062500
v 0.000000 0.875000 -0.125000
v -0.108253 0.875000 -0.062500
v -0.108253 0.875000 0.062500
v 0.000000 0.875000 0.125000
v 0.108253 0.875000 0.062500
v 0.108253 0.875000 -0.062500
v -0.108253 0.828676 -0.060370
v -0.108253 0.796324 0.060370
v -0.541266 0.873161 -0.226389
v -0.541266 0.751839 0.226389
v 0.001844 0.828676 0.123935
v 0.106409 0.796324 0.063565
v 0.074575 0.873161 0.581944
v 0.466691 0.751839 0.355556
v 0.106409 0.828676 -0.063565
v 0.001844 0.796324 -0.123935
v 0.466691 0.873161 -0.355556
v 0.074574 0.751839 -0.581944
vt 0.869565 -0.000000
vt 0.826087 0.025641
vt 0.826087 -0.000000
vt 0.739130 -0.000000
vt 0.695652 0.025641
vt 0.695652 -0.000000
vt 0.913043 -0.000000
vt 0.869565 0.025641
vt 0.782609 0.025641
vt 0.782609 -0.000000
vt 0.739130 0.025641
vt 0.956522 -0.000000
vt 0.913043 0.025641
vt 0.761043 0.028899
vt 0.782956 0.051282
vt 0.717218 0.073665
vt 0.956522 0.128205
vt 0.847826 0.025641
vt 0.891304 0.025641
vt 0.891304 0.025641
vt 0.782609 0.128205
vt 0.847826 0.025641
vt 0.891304 0.025641
vt 0.782609 0.128205
vt 0.847826 0.025641
vt 0.956522 0.025641
vt 0.761043 0.073665
vt 0.695305 0.051282
vt 0.717218 0.028899
vt 0.782609 0.128205
vt 0.956522 0.128205
vt 0.956522 0.128205
vn -1.0000 0.0000 0.0000
vn 1.0000 0.0000 0.0000
vn -0.5000 0.0000 0.8660
vn -0.5000 0.0000 -0.8660
vn 0.5000 0.0000 -0.8660
vn 0.5000 0.0000 0.8660
vn 0.0000 1.0000 -0.0000
vn -0.0000 0.9659 0.2588
vn 0.2241 0.9659 -0.1294
vn -0.2241 0.9659 -0.1294
s off
f 3/1/1 8/2/1 2/3/1
f 6/4/2 11/5/2 5/6/2
f 4/7/3 9/8/3 3/1/3
f 2/3/4 7/9/4 1/10/4
f 1/10/5 12/11/5 6/4/5
f 5/12/6 10/13/6 4/7/6
f 12/14/7 7/15/7 9/16/7
f 15/17/8 14/18/8 13/19/8
f 17/20/9 20/21/9 18/22/9
f 21/23/10 24/24/10 22/25/10
f 3/1/1 9/8/1 8/2/1
f 6/4/2 12/11/2 11/5/2
f 4/7/3 10/13/3 9/8/3
f 2/3/4 8/2/4 7/9/4
f 1/10/5 7/9/5 12/11/5
f 5/12/6 11/26/6 10/13/6
f 7/15/7 8/27/7 9/16/7
f 9/16/7 10/28/7 11/29/7
f 11/29/7 12/14/7 9/16/7
f 15/17/8 16/30/8 14/18/8
f 17/20/9 19/31/9 20/21/9
f 21/23/10 23/32/10 24/24/10
