mtllib yellow_barrel.mtl
# Blender 5.1.2
# www.blender.org
o Barrel
v 0.875000 1.000000 0.875000
v 0.875000 0.000000 0.875000
v 0.875000 -0.000000 0.125000
v 0.125000 1.000000 0.875000
v 0.125000 0.000000 0.875000
v 0.125000 1.000000 0.125000
v 0.125000 -0.000000 0.125000
v 0.875000 1.000000 0.125000
vn 1.0000 -0.0000 -0.0000
vn -0.0000 -0.0000 1.0000
vn -1.0000 -0.0000 -0.0000
vn -0.0000 -0.0000 -1.0000
vn -0.0000 -1.0000 -0.0000
vn -0.0000 1.0000 -0.0000
vt 0.000000 0.750000
vt 0.000000 0.416667
vt 0.250000 0.416667
vt 0.750000 0.750000
vt 0.750000 0.416667
vt 1.000000 0.416667
vt 0.500000 0.750000
vt 0.500000 0.416667
vt 0.250000 0.750000
vt 0.750000 1.000000
vt 0.500000 1.000000
vt 0.250000 1.000000
vt 1.000000 0.750000
s 1
usemtl yellow_barrel
f 1/1/1 2/2/1 3/3/1
f 4/4/2 5/5/2 2/6/2
f 6/7/3 7/8/3 5/5/3
f 8/9/4 3/3/4 7/8/4
f 2/4/5 5/10/5 7/11/5
f 4/7/6 1/11/6 8/12/6
f 8/9/1 1/1/1 3/3/1
f 1/13/2 4/4/2 2/6/2
f 4/4/3 6/7/3 5/5/3
f 6/7/4 8/9/4 7/8/4
f 3/7/5 2/4/5 7/11/5
f 6/9/6 4/7/6 8/12/6
